<?xml version="1.0" encoding="utf-8"?>
<!-- Generator: Adobe Illustrator 25.3.1, SVG Export Plug-In . SVG Version: 6.00 Build 0)  -->
<svg version="1.1" id="Layer_3" xmlns="http://www.w3.org/2000/svg" xmlns:xlink="http://www.w3.org/1999/xlink" x="0px" y="0px"
	 width="660px" height="660px" viewBox="0 0 660 660" style="enable-background:new 0 0 660 660;" xml:space="preserve">
<style type="text/css">
	.st0{fill:#FEEEED;}
	.st1{fill:#B5A99C;}
	.st2{fill:#6C5C48;}
	.st3{fill:none;stroke:#4A280C;stroke-width:8.2303;stroke-linecap:round;stroke-linejoin:round;stroke-miterlimit:10;}
	.st4{fill:#FFA3B9;}
	.st5{fill:#FFD999;}
	.st6{fill:#F4769D;}
	.st7{fill:#BCE6DD;}
	.st8{fill:#4A280C;}
</style>
<circle class="st0" cx="1040.3" cy="330" r="330"/>
<circle class="st0" cx="1750.6" cy="330" r="330"/>
<circle class="st0" cx="2460.9" cy="330" r="330"/>
<circle class="st0" cx="3171.2" cy="330" r="330"/>
<circle class="st0" cx="330" cy="1750" r="330"/>
<circle class="st0" cx="1040.6" cy="1750.6" r="330"/>
<circle class="st0" cx="1750.9" cy="1750.6" r="330"/>
<circle class="st0" cx="2461.2" cy="1750.6" r="330"/>
<circle class="st0" cx="330" cy="3171.2" r="330"/>
<circle class="st0" cx="1040.3" cy="3171.2" r="330"/>
<circle class="st0" cx="1750.6" cy="3171.2" r="330"/>
<circle class="st0" cx="2460.9" cy="3171.2" r="330"/>
<circle class="st0" cx="3171.2" cy="1751.2" r="330"/>
<g>
	<circle class="st0" cx="330" cy="330" r="330"/>
	<g id="Pusheen_x5F_donut_2_">
		<g id="color_90_">
			<path id="_x3C_Path_x3E__84_" class="st1" d="M471.6,410.3c3.4-22.7,3.2-41.6,0.3-62.2c-6.8-48.4-24.7-93.3-44.1-137.9
				c-8.1-18.7-19.3-38.8-30.4-55.9c-4.2-6.5-9.1-14.1-16.8-14.6c-7.8-0.5-14.2,5.9-19,12.1c-4.8,6.1-5.8,12.4-9.8,19H312
				c-4.8-8.3-8.4-15.3-14.3-22.8c-2.5-3.1-5.2-5.7-9-7c-4.7-1.6-10.3-1.4-14.5,1.5c-12.5,9.6-30.4,45.9-36.2,57.1
				c-46.4,90.7-67.6,174.1-51.6,242.3c0.3,1.5,1.1,2.4,0.8,3.8c-13.9,1.8-29.5-11.5-35.4-22.6c-4.1-7.7-5.8-19.4-14.4-23.8
				c-3.3-1.7-7.5-1.8-10.6,0.3c-2,1.4-4.3,3.6-5.3,5.8c-4,9-1.4,19.1,2.2,28c16.5,40.5,68.3,46.9,106.4,50.4
				c16.1,1.5,188.3,5.1,220.4-2.2c4.6-1.1,12.1-2.5,15.5-5.8c3.5-3.3,4.4-10.8,1.6-16.2c-2.4-4.1-11.3-4.7-15.9-3.5
				c-4.6,1.3-8.6,4.4-12.3,7.5c1.3-1.4,2.6-2.8,3.8-4.3c3.5-4.2,13.7-6.8,16.4-11.6C465.8,436.9,469.7,422.9,471.6,410.3z"/>
			<path class="st1" d="M293.5,468.8c3-2.2,6.3-4.2,9.9-5.2c1.9-0.5,3.8-0.7,5.8-0.6c1.1,0.1,6.4,0.2,7.5,0.5
				c2.9,0.9,5.3,3.1,6.5,5.9s1.1,8.4-0.3,11.1c-3.3,5.4-11.8,6.6-20,6.3"/>
			<path class="st2" d="M209.4,480.3c-9-9.2-16-26-18.8-39c-2.7,2.9-9.4,5.3-13.1,3.7c-0.3,9.8,0.6,20.8,2.1,29.6
				c4.4,1.7,5.4,1.9,10,3.2C196.3,479.8,202.6,481.8,209.4,480.3z"/>
			<path class="st2" d="M156.2,466.6c2.4-10.5,5.9-18.7,9.3-27.5c-4.4-2.8-7.7-4.7-10.9-8.8c-7.4,6.3-13.5,14.3-19.4,20.4
				C138.8,455.5,156.3,466.8,156.2,466.6z"/>
			<path class="st2" d="M149.2,418.3c-9,3.6-17.8,7.5-26.6,11.6c-1.7-4.3-3.2-8.5-3.4-13.1s0.7-9.4,3.4-13.1
				c2.7-3.7,7.4-6.1,11.9-5.5c4.4,0.6,8,3.9,10.2,7.8C146.9,409.8,148.3,413.9,149.2,418.3z"/>
			<path class="st2" d="M212.4,329c2.7-11.6-4.5-23.3-16.1-26c-1.2-0.3-2.4-0.4-3.7-0.5c-3.1,12.5-5.8,26.9-7.3,42.3
				c0.4,0.1,0.8,0.2,1.1,0.3C198.1,347.8,209.7,340.6,212.4,329z"/>
			<path class="st2" d="M227.6,278.2c2.5-10.8-3.5-21.6-13.7-25.3c-3.6,4.8-3.5,9.8-6.3,15.1c-2.9,5.6-6.6,13.7-9.5,23.7
				c1.9,1.2,0.7,2,3,2.6C212.6,297,224.8,289.8,227.6,278.2z"/>
			<path class="st2" d="M320.2,191.2c-2.5,0-4.6-1.8-5.1-4.3l-1.9-12c-0.5-2.9,1.4-5.6,4.2-6.1c2.9-0.5,5.6,1.4,6.1,4.2l1.9,12
				c0.5,2.9-1.4,5.6-4.2,6.1C320.8,191.1,320.5,191.2,320.2,191.2z"/>
			<path class="st2" d="M348.5,190.7c-2.5,0-4.6-1.8-5.1-4.3l-1.9-12c-0.5-2.9,1.4-5.6,4.2-6.1c2.9-0.5,5.6,1.4,6.1,4.2l1.9,12
				c0.5,2.9-1.4,5.6-4.2,6.1C349.2,190.7,348.9,190.7,348.5,190.7z"/>
			<path class="st2" d="M334.2,191.3c-2.5,0-4.6-1.8-5.1-4.3l-1.9-12.1c-0.5-2.9,1.4-5.6,4.2-6.1c2.9-0.5,5.6,1.4,6.1,4.2l1.9,12.1
				c0.5,2.9-1.4,5.6-4.2,6.1C334.9,191.3,334.6,191.3,334.2,191.3z"/>
		</g>
		<g id="line_112_">
			<path class="st3" d="M413.8,205.1c11.6-3.7,26.7-5.8,38.5-5.8"/>
			<path class="st3" d="M416.8,219.8c11.6-0.6,25.8,0.1,37.3,2.1"/>
			<path class="st3" d="M219.8,197.9c13.9,0,31.6,2.1,44.8,8.1"/>
			<path class="st3" d="M216.3,221.9c14.4-3.2,29.5-3.5,44-1"/>
			<path class="st3" d="M457.2,454.6c11.5-21.6,16-46.2,16.3-70.5c0.5-39.1-9.7-76.2-22-113c-12.7-38.2-29.3-76.1-49.9-110.8
				c-4.4-7.4-9.5-14.5-17.6-18.6c-10.4-5.2-17.2,0.2-23.6,8.4c-4.8,6.1-7.6,14.1-11.5,20.8c-4.7,0-32.6,1.8-33.3,0.5
				c-11.6-20.8-21.8-36.1-36.8-29.5c-11.2,5-17.5,18.6-23.2,28.8c-6.6,11.7-12.3,24.3-18.3,35.9c-51.5,99-66.2,175.1-50.7,235.3
				c0.4,1.4,1.1,2.4,0.8,3.8c-15.1-4.2-28.9-13.1-36.5-27.1c-3.8-6.9-5.6-15.4-13.3-19.3c-3.3-1.7-7.5-1.8-10.6,0.3
				c-2,1.4-4.3,3.6-5.3,5.8c-4,9-1.4,19.1,2.2,28c16.5,40.5,79.1,47.2,95.7,50.4c51.1,10,193.5,6.4,231.1-2.2
				c8.6-2,19-5.1,18.8-16.1c-0.1-9.5-10.1-11.3-17.6-9.3c-4.6,1.3-8.6,3.8-12.3,6.9c-1.1,0.9-1.6,1.6-2.6,2.5"/>
			<path class="st3" d="M292.9,471.8c5.4-3.9,12.4-7.6,19.1-7.8c8.1-0.2,15.7,6.4,13.4,14.9c-2.3,8.5-15.6,10.6-22.6,10.3"/>
		</g>
		<g id="donut_4_">
			<g id="color_89_">
				<path class="st4" d="M382.9,249.5c0.5,6.3-5,14.8-11.5,17.3c-2.9,1.1-6,0.7-8.6,2.4c-1.6,1.1-2.9,2.7-4.4,3.9
					c-3,2.4-7,3.4-10.7,2.7c-3.1-0.6-6-2.3-9.2-2.3c-2.3,0-6.3,1.3-8.6,1.1c-2.7-0.2-4.7-1.1-6.7-3c-2-1.9-3.4-5.1-5.9-7
					c-2.6-1.5-4.7-1.1-6.3-1.1c-2.8-0.1-5.8-1.4-7.8-3.3c-2.6-2.4-2.5-5.7-2.4-9.1c0-2.9,0.4-5.8,1.1-8.6
					c2.1-8.6,7.4-16.2,15.3-20.3c8.4-4.4,17.9-7,27.4-6.8c9.5,0.2,19.1,3.4,26.3,9.6C378.7,231.5,382.8,238.6,382.9,249.5"/>
				<path class="st5" d="M380.8,258.6c-1.8,2.8-4.1,4.4-6.5,6.8c-2.4,1.6-4.7,1.6-7.1,2.4c-7.9,5.5-17.3,11-26.8,5.5
					c-3.2-1.6-7.1,2.4-11,1.6c-6.3-0.8-7.9-7.1-12.6-10.2c-3.2-1.6-6.3-1.6-9.5-1.6c-1.6-0.8-2.4-2.4-4-2.9v0.3
					c1.5,7.4,3.8,14.1,9.8,18.8c10.4,8.1,24.8,9.8,37.5,8.1c15.9-2.1,28.1-10.9,30.2-28"/>
				<path class="st5" d="M324.7,260c0.3,1.5,1.4,2.9,2.9,3.3c1.1,0.3,2.6,0.2,3.6-0.4c1.7-1.2,2.1-3.4,1.5-5.3
					c-0.3-0.8-0.6-1.5-1.3-2c-0.9-0.7-2.2-0.8-3.3-0.6C325.5,255.3,324.2,257.3,324.7,260z"/>
				<path class="st5" d="M355.2,230.3c-0.7,1.9-0.2,4.6,1.8,5.5c1.6,0.7,4.1,0.4,5.3-0.8c0.3-0.3,0.5-0.7,0.7-1.1
					c0.8-1.7,0.4-4.4-1.2-5.6C359.4,226.6,356.1,227.7,355.2,230.3z"/>
				<path class="st6" d="M326,234.4c1.7,1.8,5.1,1.4,6.5-0.5c1.8-2.3,0.3-6.3-2.6-6.8C326.1,226.5,323.4,231.6,326,234.4z"/>
				<path class="st6" d="M361.2,254.7c0.1,0.5,0.2,1,0.5,1.4c0.7,1.3,2.4,1.8,3.9,1.7c1,0,2-0.2,2.7-0.9c0.7-0.8,0.9-1.9,0.9-3
					c0-0.9,0-1.7-0.4-2.5c-0.9-2.1-3.8-2.7-5.7-1.6C361.4,250.8,360.9,253,361.2,254.7z"/>
				<path class="st7" d="M313.8,244.9c-0.2,2.8,2.2,4.7,4.8,4.3c3.9-0.6,5-5.6,1.6-7.7C317.2,239.6,314,242.1,313.8,244.9z"/>
				<path class="st7" d="M343.4,265c0.9,1.8,3,2.9,5.3,2.2c2.6-0.8,3.5-4.6,2-6.7c-1.7-2.5-5.5-2.1-7,0.4
					C342.8,262.3,342.8,263.8,343.4,265z"/>
			</g>
			<g id="line_111_">
				<path class="st8" d="M335.6,237.4c-5,2.2-8.4,9-3.1,13c3.2,2.4,8,3,11.9,3c2.4,0,4.8-0.2,7.1-1.1c2.8-1.2,5.5-3.3,6-6.4
					c0.8-5.4-4.5-8.6-9.1-9.3C343.8,236,339.8,235.5,335.6,237.4z"/>
				<path class="st3" d="M382.9,249.5c0.5,6.3-5,13.3-11.5,15.7c-2.9,1.1-6,2.2-8.6,3.9c-1.6,1.1-2.9,2.7-4.4,3.9
					c-3,2.4-7,3.4-10.7,2.7c-3.1-0.6-6-2.3-9.2-2.3c-2.3,0-6.3,1.3-8.6,1.1c-2.7-0.2-4.7-1.1-6.7-3c-2-1.9-3.4-5.1-5.9-7
					c-2.6-1.5-4.7-1.1-6.3-1.1c-4.3-0.2-9.7-3.1-10.1-7.8c-0.4-4.4-0.1-8.8,0.9-13.2c2.1-8.6,7.4-16.2,15.3-20.3
					c8.4-4.4,17.9-7,27.4-6.8c9.5,0.2,19.1,3.4,26.3,9.6c13.9,11.9,16.7,37.8,4.1,51.6c-5.8,6.4-14.3,9.3-22.7,10.4
					c-9.2,1.2-18.5,1.6-27.6-1c-6.9-1.9-13.1-5.5-17.1-11.4c-3.5-5-5.7-11.1-6.5-17.3"/>
			</g>
		</g>
		<g id="face_49_">
			<circle class="st8" cx="381" cy="214.1" r="9.3"/>
			<circle class="st8" cx="302.4" cy="214.7" r="9.3"/>
			<path class="st1" d="M342.4,207.5C342.4,207.5,342.4,207.5,342.4,207.5L342.4,207.5L342.4,207.5
				C342.4,207.5,342.4,207.5,342.4,207.5l-14.9,1.4c0.6,2.1,2.4,7.6,4.9,8.6c1.5,0.6,3,0.8,4.6,0.5c1.7-0.4,3.1-1.2,4-2.5
				c0.7-0.9,1.1-2.2,1.3-3.9c0-1.7,0-3,0-3.8c0.1,0.9,0.1,2.2,0.2,3.9c0.1,1.6,0.6,2.9,1.4,3.8c1,1.2,2.4,2,4.1,2.3
				c1.6,0.3,3.1,0.1,4.6-0.6c2-0.9,4.6-6,5.1-8.1L342.4,207.5z"/>
			<path id="_x3C_Path_x3E__70_" class="st3" d="M356.7,209.8c0,3.5-1.6,6.2-4.1,7.5c-1.5,0.7-3,0.9-4.6,0.6c-1.7-0.3-3-1.1-4.1-2.3
				c-0.8-0.9-1.2-2.2-1.4-3.8c-0.1-1.9-0.1-3.4-0.2-4.3"/>
			<path id="_x3C_Path_x3E__69_" class="st3" d="M328,209.7c0.1,3.5,1.6,6.5,4.5,7.9c1.5,0.6,3,0.8,4.6,0.5c1.7-0.4,3.1-1.2,4-2.5
				c0.7-0.9,1.1-2.2,1.3-3.9c0-1.9,0-3.3,0.1-4.2"/>
		</g>
		<g id="arms_22_">
			<path class="st1" d="M294.1,276.6c2.3-5.1,4.2-10.1,8.5-14c3.2-3,7.5-4.5,11.8-3.2c3.8,1.1,6,3.5,7.2,7.3
				c2.9,9.1-6.8,17-13.3,21.3"/>
			<path class="st3" d="M294.1,276.6c2.3-5.1,4.2-10.1,8.5-14c3.2-3,7.5-4.5,11.8-3.2c3.8,1.1,6,3.5,7.2,7.3
				c2.9,9.1-6.8,17-13.3,21.3"/>
			<path class="st1" d="M393.7,274.8c-2.3-5.1-4.2-10.1-8.5-14c-3.2-3-7.5-4.5-11.8-3.2c-3.8,1.1-6,3.5-7.2,7.3
				c-2.9,9.1,6.8,17,13.3,21.3"/>
			<path class="st3" d="M393.7,274.8c-2.3-5.1-4.2-10.1-8.5-14c-3.2-3-7.5-4.5-11.8-3.2c-3.8,1.1-6,3.5-7.2,7.3
				c-2.9,9.1,6.8,17,13.3,21.3"/>
		</g>
	</g>
</g>
</svg>
